<svg xmlns="http://www.w3.org/2000/svg" width="1180" height="610" viewBox="0 0 1180 610" role="img" aria-label="Perfil animado de SLAIN69">
<style>
:root{--bg:#F3F8FF;--panel:#FFFFFF;--inner:#E7F2FF;--line:#BBD6F5;--text:#102A43;--muted:#5D7898;--accent:#1683D8}
@media(prefers-color-scheme:dark){:root{--bg:#071324;--panel:#0B1B30;--inner:#10243D;--line:#254663;--text:#EAF4FF;--muted:#94A9C5;--accent:#38BDF8}}
text{font-family:Consolas,monospace}.muted{fill:var(--muted)}.accent{fill:var(--accent)}.text{fill:var(--text)}
</style>
<defs><clipPath id="visualClip"><rect x="49" y="124" width="390" height="414"/></clipPath></defs>
<rect width="1180" height="610" rx="18" fill="var(--bg)"/>
<rect x="13" y="13" width="1154" height="584" rx="13" fill="var(--panel)" stroke="var(--line)"/>
<path d="M13 62H1167" stroke="var(--line)"/>
<circle cx="38" cy="38" r="6" fill="#FF5F57"/><circle cx="59" cy="38" r="6" fill="#FEBC2E"/><circle cx="80" cy="38" r="6" fill="#28C840"/>
<text x="590" y="43" text-anchor="middle" class="muted" font-size="13">vim profile.yml</text>
<rect x="35" y="88" width="418" height="472" rx="6" fill="var(--inner)" stroke="var(--line)"/>
<path d="M35 124H453" stroke="var(--line)"/>
<text x="49" y="111" class="accent" font-size="13" font-weight="bold">VISUAL.MAP</text>
<text x="438" y="111" text-anchor="end" class="muted" font-size="11">PIXEL ART</text>

<g clip-path="url(#visualClip)">
<g id="character" transform="translate(125 189) scale(13.2)" shape-rendering="crispEdges" opacity="1">
<path d="M0 0h1v1h-1zM0 2h1v1h-1zM2 2h1v1h-1zM0 4h1v1h-1zM2 4h1v1h-1zM1 5h1v1h-1zM17 5h1v1h-1zM0 6h1v1h-1zM2 6h1v1h-1zM17 6h1v1h-1zM0 7h2v1h-2zM17 7h1v1h-1zM0 8h2v1h-2zM16 8h2v1h-2zM0 9h2v1h-2zM16 9h2v1h-2zM0 10h3v1h-3zM16 10h2v1h-2zM0 11h3v1h-3zM15 11h3v1h-3zM0 12h4v1h-4zM12 12h1v1h-1zM14 12h4v1h-4zM0 13h5v1h-5zM11 13h3v1h-3zM15 13h3v1h-3zM0 14h7v1h-7zM9 14h4v1h-4zM14 14h4v1h-4zM0 15h12v1h-12zM13 15h1v1h-1zM15 15h1v1h-1zM17 15h1v1h-1zM0 16h15v1h-15zM16 16h2v1h-2zM0 17h12v1h-12zM17 17h1v1h-1z" fill="#17365D"/>
<path d="M1 0h2v1h-2zM0 1h3v1h-3zM1 2h1v1h-1zM3 2h1v1h-1zM5 2h2v1h-2zM0 3h4v1h-4zM6 3h2v1h-2zM9 3h1v1h-1zM17 3h1v1h-1zM1 4h1v1h-1zM3 4h2v1h-2zM7 4h2v1h-2zM10 4h1v1h-1zM16 4h2v1h-2zM0 5h1v1h-1zM2 5h4v1h-4zM9 5h1v1h-1zM1 6h1v1h-1zM3 6h4v1h-4zM8 6h2v1h-2zM12 6h1v1h-1zM14 6h1v1h-1zM16 6h1v1h-1zM2 7h2v1h-2zM5 7h3v1h-3zM16 7h1v1h-1zM2 8h3v1h-3zM2 9h2v1h-2zM13 9h1v1h-1zM3 10h1v1h-1zM13 10h3v1h-3zM3 11h1v1h-1zM13 11h2v1h-2zM4 12h1v1h-1zM13 12h1v1h-1zM5 13h1v1h-1zM10 13h1v1h-1zM14 13h1v1h-1zM13 14h1v1h-1zM12 15h1v1h-1zM14 15h1v1h-1zM16 15h1v1h-1zM15 16h1v1h-1zM12 17h5v1h-5z" fill="#2F6EA9"/>
<path d="M3 0h2v1h-2zM6 0h1v1h-1zM8 0h3v1h-3zM12 0h3v1h-3zM16 0h2v1h-2zM3 1h3v1h-3zM7 1h1v1h-1zM9 1h1v1h-1zM13 1h1v1h-1zM15 1h1v1h-1zM17 1h1v1h-1zM4 2h1v1h-1zM7 2h4v1h-4zM12 2h1v1h-1zM14 2h1v1h-1zM16 2h2v1h-2zM4 3h2v1h-2zM10 3h2v1h-2zM13 3h3v1h-3zM5 4h2v1h-2zM9 4h1v1h-1zM11 4h5v1h-5zM6 5h3v1h-3zM10 5h7v1h-7zM7 6h1v1h-1zM10 6h1v1h-1zM13 6h1v1h-1zM4 7h1v1h-1zM9 7h1v1h-1zM11 7h3v1h-3zM15 7h1v1h-1zM6 8h3v1h-3zM12 8h4v1h-4zM14 9h2v1h-2zM4 10h1v1h-1zM6 10h1v1h-1zM10 10h1v1h-1zM12 10h1v1h-1zM4 11h1v1h-1zM12 11h1v1h-1zM5 12h2v1h-2zM8 12h1v1h-1zM11 12h1v1h-1zM6 13h2v1h-2zM7 14h2v1h-2z" fill="#78BAEE"/>
<path d="M5 0h1v1h-1zM7 0h1v1h-1zM11 0h1v1h-1zM15 0h1v1h-1zM6 1h1v1h-1zM8 1h1v1h-1zM10 1h3v1h-3zM14 1h1v1h-1zM16 1h1v1h-1zM11 2h1v1h-1zM13 2h1v1h-1zM15 2h1v1h-1zM8 3h1v1h-1zM12 3h1v1h-1zM16 3h1v1h-1zM11 6h1v1h-1zM15 6h1v1h-1zM8 7h1v1h-1zM10 7h1v1h-1zM14 7h1v1h-1zM5 8h1v1h-1zM9 8h3v1h-3zM4 9h9v1h-9zM5 10h1v1h-1zM7 10h3v1h-3zM11 10h1v1h-1zM5 11h7v1h-7zM7 12h1v1h-1zM9 12h2v1h-2zM8 13h2v1h-2z" fill="#D5EDFF"/>
<animate attributeName="opacity" dur="10s" repeatCount="indefinite" calcMode="linear" keyTimes="0;.27;.32;.33;.60;.65;.66;.93;.98;1" values="1;1;0;0;0;0;0;0;1;1"/>
</g>

<g id="linux" transform="translate(125 189) scale(13.2)" shape-rendering="crispEdges" opacity="0">
<path d="M7 1h4v1h-4zM7 2h4v1h-4zM6 3h6v1h-6zM7 4h5v1h-5zM10 5h2v1h-2zM6 6h3v1h-3zM10 6h2v1h-2zM6 7h1v1h-1zM11 7h2v1h-2zM5 8h1v1h-1zM11 8h3v1h-3zM5 9h1v1h-1zM12 9h2v1h-2zM4 10h2v1h-2zM12 10h3v1h-3zM4 11h2v1h-2zM12 11h3v1h-3zM5 12h1v1h-1zM12 12h2v1h-2zM6 13h1v1h-1zM6 14h2v1h-2zM10 14h2v1h-2zM2 15h1v1h-1zM7 15h5v1h-5zM5 16h3v1h-3zM11 16h3v1h-3z" fill="#1683D8"/>
<animate attributeName="opacity" dur="10s" repeatCount="indefinite" calcMode="linear" keyTimes="0;.27;.32;.33;.60;.65;.66;.93;.98;1" values="0;0;1;1;1;0;0;0;0;0"/>
</g>

<g id="kubernetes" transform="translate(125 189) scale(13.2)" shape-rendering="crispEdges" opacity="0">
<path d="M7 1h4v1h-4zM5 2h8v1h-8zM3 3h12v1h-12zM2 4h14v1h-14zM2 5h5v1h-5zM11 5h5v1h-5zM2 6h3v1h-3zM7 6h4v1h-4zM13 6h3v1h-3zM2 7h3v1h-3zM7 7h1v1h-1zM10 7h1v1h-1zM13 7h3v1h-3zM1 8h4v1h-4zM6 8h1v1h-1zM11 8h1v1h-1zM13 8h4v1h-4zM1 9h4v1h-4zM6 9h1v1h-1zM8 9h2v1h-2zM11 9h1v1h-1zM13 9h4v1h-4zM1 10h4v1h-4zM6 10h2v1h-2zM10 10h2v1h-2zM13 10h4v1h-4zM1 11h4v1h-4zM6 11h6v1h-6zM13 11h4v1h-4zM2 12h4v1h-4zM8 12h2v1h-2zM12 12h4v1h-4zM3 13h4v1h-4zM11 13h4v1h-4zM3 14h12v1h-12zM4 15h10v1h-10zM5 16h8v1h-8z" fill="#1683D8"/>
<animate attributeName="opacity" dur="10s" repeatCount="indefinite" calcMode="linear" keyTimes="0;.27;.32;.33;.60;.65;.66;.93;.98;1" values="0;0;0;0;0;1;1;1;0;0"/>
</g>
</g>

<rect x="474" y="88" width="672" height="472" rx="6" fill="var(--inner)" stroke="var(--line)"/>
<path d="M474 124H1146M474 526H1146" stroke="var(--line)"/>
<text x="490" y="111" class="accent" font-size="13" font-weight="bold">profile.yml</text>
<text x="1062" y="111" text-anchor="middle" class="accent" font-size="13" font-weight="bold">@SLAIN69</text>
<g class="text" font-size="16">
<text x="525" y="158">profile:</text>
<text x="542" y="194">subject: Elmer Quispe (SLAIN69)</text>
<text x="542" y="226">role: Técnico Informático</text>
<text x="542" y="258">origin: Huancayo, Perú</text>
<text x="542" y="290">status: Estudiante Ing. Sistemas</text>
<text x="525" y="338">stack:</text>
<text x="542" y="370">networking: Cisco · Linux · Windows Server</text>
<text x="542" y="402">databases: SQL Server · MySQL · MariaDB</text>
<text x="542" y="434">backend: Python · Java · Node.js</text>
<text x="542" y="466">hardware_iot: Arduino</text>
<text x="542" y="498">github: SLAIN69</text>
</g>
<text x="490" y="548" class="accent" font-size="12">NORMAL</text>
<text x="565" y="548" class="muted" font-size="12">profile.yml</text>
</svg>
